<?xml version="1.0" encoding="UTF-8" standalone="no"?>
<!DOCTYPE svg PUBLIC "-//W3C//DTD SVG 1.1//EN"
 "http://www.w3.org/Graphics/SVG/1.1/DTD/svg11.dtd">
<!-- Generated by graphviz version 2.43.0 (0)
 -->
<!-- Title: %3 Pages: 1 -->
<svg width="1254pt" height="240pt"
 viewBox="0.00 0.00 1254.00 239.74" xmlns="http://www.w3.org/2000/svg" xmlns:xlink="http://www.w3.org/1999/xlink">
<g id="graph0" class="graph" transform="scale(1 1) rotate(0) translate(36 203.74)">
<title>%3</title>
<polygon fill="white" stroke="transparent" points="-36,36 -36,-203.74 1218,-203.74 1218,36 -36,36"/>
<text text-anchor="middle" x="591" y="-152.54" font-family="Times,serif" font-size="14.00">Sweep&#39;s Plan &amp; Progress</text>
<!-- start -->
<g id="node1" class="node">
<title>start</title>
</g>
<!-- b936381c&#45;1dc0&#45;4544&#45;a2d5&#45;c83d9aca2898 -->
<g id="node3" class="node">
<title>b936381c&#45;1dc0&#45;4544&#45;a2d5&#45;c83d9aca2898</title>
<ellipse fill="green" stroke="black" cx="165.5" cy="-101.87" rx="109.7" ry="26.74"/>
<text text-anchor="middle" x="165.5" y="-105.67" font-family="Times,serif" font-size="14.00">✓ Modify</text>
<text text-anchor="middle" x="165.5" y="-90.67" font-family="Times,serif" font-size="14.00">pr2changelog/pr.py</text>
</g>
<!-- start&#45;&gt;b936381c&#45;1dc0&#45;4544&#45;a2d5&#45;c83d9aca2898 -->
<g id="edge8" class="edge">
<title>start&#45;&gt;b936381c&#45;1dc0&#45;4544&#45;a2d5&#45;c83d9aca2898</title>
<path fill="none" stroke="black" d="M1.24,-101.87C5.02,-101.87 23,-101.87 45.76,-101.87"/>
<polygon fill="black" stroke="black" points="45.78,-105.37 55.78,-101.87 45.78,-98.37 45.78,-105.37"/>
<text text-anchor="middle" x="28.45" y="-108.67" font-family="Times,serif" font-size="14.00">Start</text>
</g>
<!-- end -->
<g id="node2" class="node">
<title>end</title>
</g>
<!-- 6761f5ab&#45;17df&#45;42ae&#45;b9ee&#45;d2f7bae5d0a5 -->
<g id="node4" class="node">
<title>6761f5ab&#45;17df&#45;42ae&#45;b9ee&#45;d2f7bae5d0a5</title>
<ellipse fill="white" stroke="black" cx="459.5" cy="-101.87" rx="149.4" ry="26.74"/>
<text text-anchor="middle" x="459.5" y="-105.67" font-family="Times,serif" font-size="14.00">▶ Modify</text>
<text text-anchor="middle" x="459.5" y="-90.67" font-family="Times,serif" font-size="14.00">pr2changelog/document.py</text>
</g>
<!-- b936381c&#45;1dc0&#45;4544&#45;a2d5&#45;c83d9aca2898&#45;&gt;6761f5ab&#45;17df&#45;42ae&#45;b9ee&#45;d2f7bae5d0a5 -->
<g id="edge2" class="edge">
<title>b936381c&#45;1dc0&#45;4544&#45;a2d5&#45;c83d9aca2898&#45;&gt;6761f5ab&#45;17df&#45;42ae&#45;b9ee&#45;d2f7bae5d0a5</title>
<path fill="none" stroke="black" d="M275.18,-101.87C283.45,-101.87 291.73,-101.87 300,-101.87"/>
<polygon fill="black" stroke="black" points="300.1,-105.37 310.1,-101.87 300.1,-98.37 300.1,-105.37"/>
</g>
<!-- 870ff115&#45;5ee9&#45;42af&#45;b834&#45;cc62d9df9882 -->
<g id="node7" class="node">
<title>870ff115&#45;5ee9&#45;42af&#45;b834&#45;cc62d9df9882</title>
<polygon fill="yellow" stroke="black" points="243,-38 88,-38 88,0 243,0 243,-38"/>
<text text-anchor="middle" x="165.5" y="-22.8" font-family="Times,serif" font-size="14.00">⋯ Check</text>
<text text-anchor="middle" x="165.5" y="-7.8" font-family="Times,serif" font-size="14.00">pr2changelog/pr.py</text>
</g>
<!-- b936381c&#45;1dc0&#45;4544&#45;a2d5&#45;c83d9aca2898&#45;&gt;870ff115&#45;5ee9&#45;42af&#45;b834&#45;cc62d9df9882 -->
<g id="edge1" class="edge">
<title>b936381c&#45;1dc0&#45;4544&#45;a2d5&#45;c83d9aca2898&#45;&gt;870ff115&#45;5ee9&#45;42af&#45;b834&#45;cc62d9df9882</title>
<path fill="none" stroke="black" stroke-dasharray="5,2" d="M165.5,-74.84C165.5,-66.3 165.5,-56.78 165.5,-48.1"/>
<polygon fill="black" stroke="black" points="169,-48.05 165.5,-38.05 162,-48.05 169,-48.05"/>
</g>
<!-- ffea49bc&#45;d175&#45;4920&#45;9b3f&#45;c453831f620a -->
<g id="node5" class="node">
<title>ffea49bc&#45;d175&#45;4920&#45;9b3f&#45;c453831f620a</title>
<ellipse fill="white" stroke="black" cx="734.5" cy="-101.87" rx="89.61" ry="26.74"/>
<text text-anchor="middle" x="734.5" y="-105.67" font-family="Times,serif" font-size="14.00">▶ Modify</text>
<text text-anchor="middle" x="734.5" y="-90.67" font-family="Times,serif" font-size="14.00">tests/test_pr.py</text>
</g>
<!-- 6761f5ab&#45;17df&#45;42ae&#45;b9ee&#45;d2f7bae5d0a5&#45;&gt;ffea49bc&#45;d175&#45;4920&#45;9b3f&#45;c453831f620a -->
<g id="edge4" class="edge">
<title>6761f5ab&#45;17df&#45;42ae&#45;b9ee&#45;d2f7bae5d0a5&#45;&gt;ffea49bc&#45;d175&#45;4920&#45;9b3f&#45;c453831f620a</title>
<path fill="none" stroke="black" d="M608.82,-101.87C617.4,-101.87 625.99,-101.87 634.58,-101.87"/>
<polygon fill="black" stroke="black" points="634.66,-105.37 644.66,-101.87 634.66,-98.37 634.66,-105.37"/>
</g>
<!-- 9b017755&#45;8c7a&#45;46bd&#45;a85b&#45;27053261ec96 -->
<g id="node8" class="node">
<title>9b017755&#45;8c7a&#45;46bd&#45;a85b&#45;27053261ec96</title>
<polygon fill="white" stroke="black" points="565,-38 354,-38 354,0 565,0 565,-38"/>
<text text-anchor="middle" x="459.5" y="-22.8" font-family="Times,serif" font-size="14.00">▶ Check</text>
<text text-anchor="middle" x="459.5" y="-7.8" font-family="Times,serif" font-size="14.00">pr2changelog/document.py</text>
</g>
<!-- 6761f5ab&#45;17df&#45;42ae&#45;b9ee&#45;d2f7bae5d0a5&#45;&gt;9b017755&#45;8c7a&#45;46bd&#45;a85b&#45;27053261ec96 -->
<g id="edge3" class="edge">
<title>6761f5ab&#45;17df&#45;42ae&#45;b9ee&#45;d2f7bae5d0a5&#45;&gt;9b017755&#45;8c7a&#45;46bd&#45;a85b&#45;27053261ec96</title>
<path fill="none" stroke="black" stroke-dasharray="5,2" d="M459.5,-74.84C459.5,-66.3 459.5,-56.78 459.5,-48.1"/>
<polygon fill="black" stroke="black" points="463,-48.05 459.5,-38.05 456,-48.05 463,-48.05"/>
</g>
<!-- b33b1e31&#45;f9bd&#45;423b&#45;bd20&#45;8b218c47f17f -->
<g id="node6" class="node">
<title>b33b1e31&#45;f9bd&#45;423b&#45;bd20&#45;8b218c47f17f</title>
<ellipse fill="white" stroke="black" cx="989.5" cy="-101.87" rx="129.3" ry="26.74"/>
<text text-anchor="middle" x="989.5" y="-105.67" font-family="Times,serif" font-size="14.00">▶ Modify</text>
<text text-anchor="middle" x="989.5" y="-90.67" font-family="Times,serif" font-size="14.00">tests/test_document.py</text>
</g>
<!-- ffea49bc&#45;d175&#45;4920&#45;9b3f&#45;c453831f620a&#45;&gt;b33b1e31&#45;f9bd&#45;423b&#45;bd20&#45;8b218c47f17f -->
<g id="edge6" class="edge">
<title>ffea49bc&#45;d175&#45;4920&#45;9b3f&#45;c453831f620a&#45;&gt;b33b1e31&#45;f9bd&#45;423b&#45;bd20&#45;8b218c47f17f</title>
<path fill="none" stroke="black" d="M824.65,-101.87C833.04,-101.87 841.43,-101.87 849.83,-101.87"/>
<polygon fill="black" stroke="black" points="850.06,-105.37 860.06,-101.87 850.06,-98.37 850.06,-105.37"/>
</g>
<!-- ac1fe3f6&#45;9288&#45;4a84&#45;a97d&#45;a44b665361e4 -->
<g id="node9" class="node">
<title>ac1fe3f6&#45;9288&#45;4a84&#45;a97d&#45;a44b665361e4</title>
<polygon fill="white" stroke="black" points="798,-38 671,-38 671,0 798,0 798,-38"/>
<text text-anchor="middle" x="734.5" y="-22.8" font-family="Times,serif" font-size="14.00">▶ Check</text>
<text text-anchor="middle" x="734.5" y="-7.8" font-family="Times,serif" font-size="14.00">tests/test_pr.py</text>
</g>
<!-- ffea49bc&#45;d175&#45;4920&#45;9b3f&#45;c453831f620a&#45;&gt;ac1fe3f6&#45;9288&#45;4a84&#45;a97d&#45;a44b665361e4 -->
<g id="edge5" class="edge">
<title>ffea49bc&#45;d175&#45;4920&#45;9b3f&#45;c453831f620a&#45;&gt;ac1fe3f6&#45;9288&#45;4a84&#45;a97d&#45;a44b665361e4</title>
<path fill="none" stroke="black" stroke-dasharray="5,2" d="M734.5,-74.84C734.5,-66.3 734.5,-56.78 734.5,-48.1"/>
<polygon fill="black" stroke="black" points="738,-48.05 734.5,-38.05 731,-48.05 738,-48.05"/>
</g>
<!-- b33b1e31&#45;f9bd&#45;423b&#45;bd20&#45;8b218c47f17f&#45;&gt;end -->
<g id="edge9" class="edge">
<title>b33b1e31&#45;f9bd&#45;423b&#45;bd20&#45;8b218c47f17f&#45;&gt;end</title>
<path fill="none" stroke="black" d="M1119.16,-101.87C1140.65,-101.87 1159.56,-101.87 1170.76,-101.87"/>
<polygon fill="black" stroke="black" points="1170.78,-105.37 1180.78,-101.87 1170.78,-98.37 1170.78,-105.37"/>
<text text-anchor="middle" x="1149.95" y="-108.67" font-family="Times,serif" font-size="14.00">Finish</text>
</g>
<!-- baa145f2&#45;3faf&#45;4965&#45;a889&#45;43bba4e65d55 -->
<g id="node10" class="node">
<title>baa145f2&#45;3faf&#45;4965&#45;a889&#45;43bba4e65d55</title>
<polygon fill="white" stroke="black" points="1081,-38 898,-38 898,0 1081,0 1081,-38"/>
<text text-anchor="middle" x="989.5" y="-22.8" font-family="Times,serif" font-size="14.00">▶ Check</text>
<text text-anchor="middle" x="989.5" y="-7.8" font-family="Times,serif" font-size="14.00">tests/test_document.py</text>
</g>
<!-- b33b1e31&#45;f9bd&#45;423b&#45;bd20&#45;8b218c47f17f&#45;&gt;baa145f2&#45;3faf&#45;4965&#45;a889&#45;43bba4e65d55 -->
<g id="edge7" class="edge">
<title>b33b1e31&#45;f9bd&#45;423b&#45;bd20&#45;8b218c47f17f&#45;&gt;baa145f2&#45;3faf&#45;4965&#45;a889&#45;43bba4e65d55</title>
<path fill="none" stroke="black" stroke-dasharray="5,2" d="M989.5,-74.84C989.5,-66.3 989.5,-56.78 989.5,-48.1"/>
<polygon fill="black" stroke="black" points="993,-48.05 989.5,-38.05 986,-48.05 993,-48.05"/>
</g>
</g>
</svg>
