<?xml version="1.0" encoding="UTF-8" standalone="no"?>
<!DOCTYPE svg PUBLIC "-//W3C//DTD SVG 1.1//EN"
 "http://www.w3.org/Graphics/SVG/1.1/DTD/svg11.dtd">
<!-- Generated by graphviz version 2.43.0 (0)
 -->
<!-- Title: %3 Pages: 1 -->
<svg width="1254pt" height="419pt"
 viewBox="0.00 0.00 1254.00 419.48" xmlns="http://www.w3.org/2000/svg" xmlns:xlink="http://www.w3.org/1999/xlink">
<g id="graph0" class="graph" transform="scale(1 1) rotate(0) translate(36 383.48)">
<title>%3</title>
<polygon fill="white" stroke="transparent" points="-36,36 -36,-383.48 1218,-383.48 1218,36 -36,36"/>
<text text-anchor="middle" x="591" y="-332.28" font-family="Times,serif" font-size="14.00">Sweep&#39;s Plan &amp; Progress</text>
<!-- start -->
<g id="node1" class="node">
<title>start</title>
</g>
<!-- b936381c&#45;1dc0&#45;4544&#45;a2d5&#45;c83d9aca2898 -->
<g id="node3" class="node">
<title>b936381c&#45;1dc0&#45;4544&#45;a2d5&#45;c83d9aca2898</title>
<ellipse fill="green" stroke="black" cx="165.5" cy="-281.61" rx="109.7" ry="26.74"/>
<text text-anchor="middle" x="165.5" y="-285.41" font-family="Times,serif" font-size="14.00">✓ Modify</text>
<text text-anchor="middle" x="165.5" y="-270.41" font-family="Times,serif" font-size="14.00">pr2changelog/pr.py</text>
</g>
<!-- start&#45;&gt;b936381c&#45;1dc0&#45;4544&#45;a2d5&#45;c83d9aca2898 -->
<g id="edge11" class="edge">
<title>start&#45;&gt;b936381c&#45;1dc0&#45;4544&#45;a2d5&#45;c83d9aca2898</title>
<path fill="none" stroke="black" d="M1.24,-281.61C5.02,-281.61 23,-281.61 45.76,-281.61"/>
<polygon fill="black" stroke="black" points="45.78,-285.11 55.78,-281.61 45.78,-278.11 45.78,-285.11"/>
<text text-anchor="middle" x="28.45" y="-288.41" font-family="Times,serif" font-size="14.00">Start</text>
</g>
<!-- end -->
<g id="node2" class="node">
<title>end</title>
</g>
<!-- 6761f5ab&#45;17df&#45;42ae&#45;b9ee&#45;d2f7bae5d0a5 -->
<g id="node4" class="node">
<title>6761f5ab&#45;17df&#45;42ae&#45;b9ee&#45;d2f7bae5d0a5</title>
<ellipse fill="green" stroke="black" cx="459.5" cy="-281.61" rx="149.4" ry="26.74"/>
<text text-anchor="middle" x="459.5" y="-285.41" font-family="Times,serif" font-size="14.00">✓ Modify</text>
<text text-anchor="middle" x="459.5" y="-270.41" font-family="Times,serif" font-size="14.00">pr2changelog/document.py</text>
</g>
<!-- b936381c&#45;1dc0&#45;4544&#45;a2d5&#45;c83d9aca2898&#45;&gt;6761f5ab&#45;17df&#45;42ae&#45;b9ee&#45;d2f7bae5d0a5 -->
<g id="edge2" class="edge">
<title>b936381c&#45;1dc0&#45;4544&#45;a2d5&#45;c83d9aca2898&#45;&gt;6761f5ab&#45;17df&#45;42ae&#45;b9ee&#45;d2f7bae5d0a5</title>
<path fill="none" stroke="black" d="M275.18,-281.61C283.45,-281.61 291.73,-281.61 300,-281.61"/>
<polygon fill="black" stroke="black" points="300.1,-285.11 310.1,-281.61 300.1,-278.11 300.1,-285.11"/>
</g>
<!-- 870ff115&#45;5ee9&#45;42af&#45;b834&#45;cc62d9df9882 -->
<g id="node7" class="node">
<title>870ff115&#45;5ee9&#45;42af&#45;b834&#45;cc62d9df9882</title>
<polygon fill="green" stroke="black" points="243,-217.74 88,-217.74 88,-179.74 243,-179.74 243,-217.74"/>
<text text-anchor="middle" x="165.5" y="-202.54" font-family="Times,serif" font-size="14.00">✓ Check</text>
<text text-anchor="middle" x="165.5" y="-187.54" font-family="Times,serif" font-size="14.00">pr2changelog/pr.py</text>
</g>
<!-- b936381c&#45;1dc0&#45;4544&#45;a2d5&#45;c83d9aca2898&#45;&gt;870ff115&#45;5ee9&#45;42af&#45;b834&#45;cc62d9df9882 -->
<g id="edge1" class="edge">
<title>b936381c&#45;1dc0&#45;4544&#45;a2d5&#45;c83d9aca2898&#45;&gt;870ff115&#45;5ee9&#45;42af&#45;b834&#45;cc62d9df9882</title>
<path fill="none" stroke="black" stroke-dasharray="5,2" d="M165.5,-254.58C165.5,-246.04 165.5,-236.52 165.5,-227.84"/>
<polygon fill="black" stroke="black" points="169,-227.79 165.5,-217.79 162,-227.79 169,-227.79"/>
</g>
<!-- ffea49bc&#45;d175&#45;4920&#45;9b3f&#45;c453831f620a -->
<g id="node5" class="node">
<title>ffea49bc&#45;d175&#45;4920&#45;9b3f&#45;c453831f620a</title>
<ellipse fill="green" stroke="black" cx="734.5" cy="-281.61" rx="89.61" ry="26.74"/>
<text text-anchor="middle" x="734.5" y="-285.41" font-family="Times,serif" font-size="14.00">✓ Modify</text>
<text text-anchor="middle" x="734.5" y="-270.41" font-family="Times,serif" font-size="14.00">tests/test_pr.py</text>
</g>
<!-- 6761f5ab&#45;17df&#45;42ae&#45;b9ee&#45;d2f7bae5d0a5&#45;&gt;ffea49bc&#45;d175&#45;4920&#45;9b3f&#45;c453831f620a -->
<g id="edge4" class="edge">
<title>6761f5ab&#45;17df&#45;42ae&#45;b9ee&#45;d2f7bae5d0a5&#45;&gt;ffea49bc&#45;d175&#45;4920&#45;9b3f&#45;c453831f620a</title>
<path fill="none" stroke="black" d="M608.82,-281.61C617.4,-281.61 625.99,-281.61 634.58,-281.61"/>
<polygon fill="black" stroke="black" points="634.66,-285.11 644.66,-281.61 634.66,-278.11 634.66,-285.11"/>
</g>
<!-- 9b017755&#45;8c7a&#45;46bd&#45;a85b&#45;27053261ec96 -->
<g id="node8" class="node">
<title>9b017755&#45;8c7a&#45;46bd&#45;a85b&#45;27053261ec96</title>
<polygon fill="green" stroke="black" points="565,-217.74 354,-217.74 354,-179.74 565,-179.74 565,-217.74"/>
<text text-anchor="middle" x="459.5" y="-202.54" font-family="Times,serif" font-size="14.00">✓ Check</text>
<text text-anchor="middle" x="459.5" y="-187.54" font-family="Times,serif" font-size="14.00">pr2changelog/document.py</text>
</g>
<!-- 6761f5ab&#45;17df&#45;42ae&#45;b9ee&#45;d2f7bae5d0a5&#45;&gt;9b017755&#45;8c7a&#45;46bd&#45;a85b&#45;27053261ec96 -->
<g id="edge3" class="edge">
<title>6761f5ab&#45;17df&#45;42ae&#45;b9ee&#45;d2f7bae5d0a5&#45;&gt;9b017755&#45;8c7a&#45;46bd&#45;a85b&#45;27053261ec96</title>
<path fill="none" stroke="black" stroke-dasharray="5,2" d="M459.5,-254.58C459.5,-246.04 459.5,-236.52 459.5,-227.84"/>
<polygon fill="black" stroke="black" points="463,-227.79 459.5,-217.79 456,-227.79 463,-227.79"/>
</g>
<!-- b33b1e31&#45;f9bd&#45;423b&#45;bd20&#45;8b218c47f17f -->
<g id="node6" class="node">
<title>b33b1e31&#45;f9bd&#45;423b&#45;bd20&#45;8b218c47f17f</title>
<ellipse fill="yellow" stroke="black" cx="989.5" cy="-281.61" rx="129.3" ry="26.74"/>
<text text-anchor="middle" x="989.5" y="-285.41" font-family="Times,serif" font-size="14.00">⋯ Modify</text>
<text text-anchor="middle" x="989.5" y="-270.41" font-family="Times,serif" font-size="14.00">tests/test_document.py</text>
</g>
<!-- ffea49bc&#45;d175&#45;4920&#45;9b3f&#45;c453831f620a&#45;&gt;b33b1e31&#45;f9bd&#45;423b&#45;bd20&#45;8b218c47f17f -->
<g id="edge9" class="edge">
<title>ffea49bc&#45;d175&#45;4920&#45;9b3f&#45;c453831f620a&#45;&gt;b33b1e31&#45;f9bd&#45;423b&#45;bd20&#45;8b218c47f17f</title>
<path fill="none" stroke="black" d="M824.65,-281.61C833.04,-281.61 841.43,-281.61 849.83,-281.61"/>
<polygon fill="black" stroke="black" points="850.06,-285.11 860.06,-281.61 850.06,-278.11 850.06,-285.11"/>
</g>
<!-- ac1fe3f6&#45;9288&#45;4a84&#45;a97d&#45;a44b665361e4 -->
<g id="node9" class="node">
<title>ac1fe3f6&#45;9288&#45;4a84&#45;a97d&#45;a44b665361e4</title>
<polygon fill="red" stroke="black" points="723,-217.74 596,-217.74 596,-179.74 723,-179.74 723,-217.74"/>
<text text-anchor="middle" x="659.5" y="-202.54" font-family="Times,serif" font-size="14.00">✗ Check</text>
<text text-anchor="middle" x="659.5" y="-187.54" font-family="Times,serif" font-size="14.00">tests/test_pr.py</text>
</g>
<!-- ffea49bc&#45;d175&#45;4920&#45;9b3f&#45;c453831f620a&#45;&gt;ac1fe3f6&#45;9288&#45;4a84&#45;a97d&#45;a44b665361e4 -->
<g id="edge5" class="edge">
<title>ffea49bc&#45;d175&#45;4920&#45;9b3f&#45;c453831f620a&#45;&gt;ac1fe3f6&#45;9288&#45;4a84&#45;a97d&#45;a44b665361e4</title>
<path fill="none" stroke="black" stroke-dasharray="5,2" d="M711.18,-255.47C702.29,-245.88 692.15,-234.95 683.23,-225.32"/>
<polygon fill="black" stroke="black" points="685.74,-222.89 676.37,-217.93 680.61,-227.65 685.74,-222.89"/>
</g>
<!-- 5c0f003e&#45;4343&#45;46da&#45;b27c&#45;cb5bff78d937 -->
<g id="node10" class="node">
<title>5c0f003e&#45;4343&#45;46da&#45;b27c&#45;cb5bff78d937</title>
<polygon fill="green" stroke="black" points="868,-217.74 741,-217.74 741,-179.74 868,-179.74 868,-217.74"/>
<text text-anchor="middle" x="804.5" y="-202.54" font-family="Times,serif" font-size="14.00">✓ Check</text>
<text text-anchor="middle" x="804.5" y="-187.54" font-family="Times,serif" font-size="14.00">tests/test_pr.py</text>
</g>
<!-- ffea49bc&#45;d175&#45;4920&#45;9b3f&#45;c453831f620a&#45;&gt;5c0f003e&#45;4343&#45;46da&#45;b27c&#45;cb5bff78d937 -->
<g id="edge8" class="edge">
<title>ffea49bc&#45;d175&#45;4920&#45;9b3f&#45;c453831f620a&#45;&gt;5c0f003e&#45;4343&#45;46da&#45;b27c&#45;cb5bff78d937</title>
<path fill="none" stroke="black" stroke-dasharray="5,2" d="M756.26,-255.47C764.48,-245.98 773.84,-235.17 782.11,-225.61"/>
<polygon fill="black" stroke="black" points="784.85,-227.79 788.75,-217.93 779.56,-223.2 784.85,-227.79"/>
</g>
<!-- b33b1e31&#45;f9bd&#45;423b&#45;bd20&#45;8b218c47f17f&#45;&gt;end -->
<g id="edge12" class="edge">
<title>b33b1e31&#45;f9bd&#45;423b&#45;bd20&#45;8b218c47f17f&#45;&gt;end</title>
<path fill="none" stroke="black" d="M1119.16,-281.61C1140.65,-281.61 1159.56,-281.61 1170.76,-281.61"/>
<polygon fill="black" stroke="black" points="1170.78,-285.11 1180.78,-281.61 1170.78,-278.11 1170.78,-285.11"/>
<text text-anchor="middle" x="1149.95" y="-288.41" font-family="Times,serif" font-size="14.00">Finish</text>
</g>
<!-- baa145f2&#45;3faf&#45;4965&#45;a889&#45;43bba4e65d55 -->
<g id="node11" class="node">
<title>baa145f2&#45;3faf&#45;4965&#45;a889&#45;43bba4e65d55</title>
<polygon fill="white" stroke="black" points="1081,-217.74 898,-217.74 898,-179.74 1081,-179.74 1081,-217.74"/>
<text text-anchor="middle" x="989.5" y="-202.54" font-family="Times,serif" font-size="14.00">▶ Check</text>
<text text-anchor="middle" x="989.5" y="-187.54" font-family="Times,serif" font-size="14.00">tests/test_document.py</text>
</g>
<!-- b33b1e31&#45;f9bd&#45;423b&#45;bd20&#45;8b218c47f17f&#45;&gt;baa145f2&#45;3faf&#45;4965&#45;a889&#45;43bba4e65d55 -->
<g id="edge10" class="edge">
<title>b33b1e31&#45;f9bd&#45;423b&#45;bd20&#45;8b218c47f17f&#45;&gt;baa145f2&#45;3faf&#45;4965&#45;a889&#45;43bba4e65d55</title>
<path fill="none" stroke="black" stroke-dasharray="5,2" d="M989.5,-254.58C989.5,-246.04 989.5,-236.52 989.5,-227.84"/>
<polygon fill="black" stroke="black" points="993,-227.79 989.5,-217.79 986,-227.79 993,-227.79"/>
</g>
<!-- b1468714&#45;8cf9&#45;4eaf&#45;80b5&#45;3d78a126e179 -->
<g id="node12" class="node">
<title>b1468714&#45;8cf9&#45;4eaf&#45;80b5&#45;3d78a126e179</title>
<ellipse fill="green" stroke="black" cx="659.5" cy="-101.87" rx="89.61" ry="26.74"/>
<text text-anchor="middle" x="659.5" y="-105.67" font-family="Times,serif" font-size="14.00">✓ Modify</text>
<text text-anchor="middle" x="659.5" y="-90.67" font-family="Times,serif" font-size="14.00">tests/test_pr.py</text>
</g>
<!-- ac1fe3f6&#45;9288&#45;4a84&#45;a97d&#45;a44b665361e4&#45;&gt;b1468714&#45;8cf9&#45;4eaf&#45;80b5&#45;3d78a126e179 -->
<g id="edge6" class="edge">
<title>ac1fe3f6&#45;9288&#45;4a84&#45;a97d&#45;a44b665361e4&#45;&gt;b1468714&#45;8cf9&#45;4eaf&#45;80b5&#45;3d78a126e179</title>
<path fill="none" stroke="black" d="M659.5,-179.45C659.5,-168.03 659.5,-152.95 659.5,-139.18"/>
<polygon fill="black" stroke="black" points="663,-139 659.5,-129 656,-139 663,-139"/>
<text text-anchor="middle" x="760.5" y="-150.54" font-family="Times,serif" font-size="14.00">Additional changes required</text>
</g>
<!-- 54b69642&#45;1ac3&#45;42dc&#45;b223&#45;86ab08de99af -->
<g id="node13" class="node">
<title>54b69642&#45;1ac3&#45;42dc&#45;b223&#45;86ab08de99af</title>
<polygon fill="green" stroke="black" points="723,-38 596,-38 596,0 723,0 723,-38"/>
<text text-anchor="middle" x="659.5" y="-22.8" font-family="Times,serif" font-size="14.00">✓ Check</text>
<text text-anchor="middle" x="659.5" y="-7.8" font-family="Times,serif" font-size="14.00">tests/test_pr.py</text>
</g>
<!-- b1468714&#45;8cf9&#45;4eaf&#45;80b5&#45;3d78a126e179&#45;&gt;54b69642&#45;1ac3&#45;42dc&#45;b223&#45;86ab08de99af -->
<g id="edge7" class="edge">
<title>b1468714&#45;8cf9&#45;4eaf&#45;80b5&#45;3d78a126e179&#45;&gt;54b69642&#45;1ac3&#45;42dc&#45;b223&#45;86ab08de99af</title>
<path fill="none" stroke="black" stroke-dasharray="5,2" d="M659.5,-74.84C659.5,-66.3 659.5,-56.78 659.5,-48.1"/>
<polygon fill="black" stroke="black" points="663,-48.05 659.5,-38.05 656,-48.05 663,-48.05"/>
</g>
</g>
</svg>
